<svg width="23" height="12" viewBox="0 0 23 12" fill="none" xmlns="http://www.w3.org/2000/svg">
<path d="M22.1172 2C22.1172 3.1 21.2172 4 20.1172 4C19.9372 4 19.7672 3.98 19.6072 3.93L16.0472 7.48C16.0972 7.64 16.1172 7.82 16.1172 8C16.1172 9.1 15.2172 10 14.1172 10C13.0172 10 12.1172 9.1 12.1172 8C12.1172 7.82 12.1372 7.64 12.1872 7.48L9.63719 4.93C9.47719 4.98 9.29719 5 9.11719 5C8.93719 5 8.75719 4.98 8.59719 4.93L4.04719 9.49C4.09719 9.65 4.11719 9.82 4.11719 10C4.11719 11.1 3.21719 12 2.11719 12C1.01719 12 0.117188 11.1 0.117188 10C0.117188 8.9 1.01719 8 2.11719 8C2.29719 8 2.46719 8.02 2.62719 8.07L7.18719 3.52C7.13719 3.36 7.11719 3.18 7.11719 3C7.11719 1.9 8.01719 1 9.11719 1C10.2172 1 11.1172 1.9 11.1172 3C11.1172 3.18 11.0972 3.36 11.0472 3.52L13.5972 6.07C13.7572 6.02 13.9372 6 14.1172 6C14.2972 6 14.4772 6.02 14.6372 6.07L18.1872 2.51C18.1372 2.35 18.1172 2.18 18.1172 2C18.1172 0.9 19.0172 0 20.1172 0C21.2172 0 22.1172 0.9 22.1172 2Z" fill="black"/>
</svg>
