<svg width="23" height="24" viewBox="0 0 23 24" fill="none" xmlns="http://www.w3.org/2000/svg">
<path d="M19.9161 16.5042L19.9174 16.5049C20.9833 17.0485 21.6447 18.1515 21.6447 19.3693V22.294H1.05646V19.3693C1.05646 18.1515 1.71786 17.0485 2.78373 16.5049L2.78507 16.5042C5.04291 15.3484 7.96515 14.4117 11.3506 14.4117C14.736 14.4117 17.6582 15.3484 19.9161 16.5042ZM15.9976 6.35287C15.9976 8.92058 13.9183 10.9999 11.3506 10.9999C8.78286 10.9999 6.70352 8.92058 6.70352 6.35287C6.70352 3.78515 8.78286 1.70581 11.3506 1.70581C13.9183 1.70581 15.9976 3.78515 15.9976 6.35287Z" stroke="black" stroke-width="2"/>
</svg>
